<?xml version="1.0" encoding="UTF-8"?>
<!DOCTYPE svg PUBLIC "-//W3C//DTD SVG 1.1//EN" "http://www.w3.org/Graphics/SVG/1.1/DTD/svg11.dtd">
<svg xmlns="http://www.w3.org/2000/svg" version="1.1" width="456px" height="585px" style="shape-rendering:geometricPrecision; text-rendering:geometricPrecision; image-rendering:optimizeQuality; fill-rule:evenodd; clip-rule:evenodd" xmlns:xlink="http://www.w3.org/1999/xlink">
<g><path style="opacity:0.994" fill="#3b87ef" d="M 226.5,-0.5 C 227.167,-0.5 227.833,-0.5 228.5,-0.5C 283.104,55.6042 338.27,111.271 394,166.5C 394.667,167.167 394.667,167.833 394,168.5C 373.333,189.167 352.667,209.833 332,230.5C 297.681,195.014 262.847,160.014 227.5,125.5C 172.207,181.293 116.707,236.959 61,292.5C 40.6319,271.965 20.1319,251.632 -0.5,231.5C -0.5,230.5 -0.5,229.5 -0.5,228.5C 75.5007,152.499 151.167,76.1659 226.5,-0.5 Z"/></g>
<g><path style="opacity:0.994" fill="#3b87ef" d="M 455.5,352.5 C 455.5,353.5 455.5,354.5 455.5,355.5C 379.499,431.501 303.833,507.834 228.5,584.5C 227.833,584.5 227.167,584.5 226.5,584.5C 171.896,528.396 116.73,472.729 61,417.5C 60.3333,416.833 60.3333,416.167 61,415.5C 116.707,359.959 172.207,304.293 227.5,248.5C 248.5,268.833 269.167,289.5 289.5,310.5C 255.196,346.138 220.529,381.472 185.5,416.5C 199.167,430.833 213.167,444.833 227.5,458.5C 282.793,402.707 338.293,347.041 394,291.5C 414.368,312.035 434.868,332.368 455.5,352.5 Z"/></g>
</svg>
