<?xml version="1.0" encoding="UTF-8"?>
<!DOCTYPE svg PUBLIC "-//W3C//DTD SVG 1.1//EN" "http://www.w3.org/Graphics/SVG/1.1/DTD/svg11.dtd">
<svg xmlns="http://www.w3.org/2000/svg" version="1.1" width="112px" height="34px" style="shape-rendering:geometricPrecision; text-rendering:geometricPrecision; image-rendering:optimizeQuality; fill-rule:evenodd; clip-rule:evenodd" xmlns:xlink="http://www.w3.org/1999/xlink">
<g><path style="opacity:0.911" fill="#0b4591" d="M 11.5,-0.5 C 12.1667,-0.5 12.8333,-0.5 13.5,-0.5C 17.1296,3.63104 20.963,7.63104 25,11.5C 24.9827,13.5676 23.9827,15.2343 22,16.5C 18.9845,13.3172 15.8178,10.3172 12.5,7.5C 10.5,9.16667 8.5,10.8333 6.5,12.5C 5.01862,11.5197 3.68529,10.353 2.5,9C 5.70436,5.96406 8.70436,2.79739 11.5,-0.5 Z"/></g>
<g><path style="opacity:0.931" fill="#0b4491" d="M 111.5,11.5 C 111.5,11.8333 111.5,12.1667 111.5,12.5C 109.37,14.1271 107.37,15.9604 105.5,18C 107.399,20.9877 109.399,23.8211 111.5,26.5C 111.5,27.1667 111.5,27.8333 111.5,28.5C 109.396,28.7989 107.396,28.4656 105.5,27.5C 102.37,20.6321 100.703,20.9655 100.5,28.5C 98.8333,28.5 97.1667,28.5 95.5,28.5C 95.5,19.8333 95.5,11.1667 95.5,2.5C 97.1667,2.5 98.8333,2.5 100.5,2.5C 100.334,7.17853 100.501,11.8452 101,16.5C 102.5,15 104,13.5 105.5,12C 107.473,11.5045 109.473,11.3379 111.5,11.5 Z"/></g>
<g><path style="opacity:0.945" fill="#0b4491" d="M 54.5,14.5 C 53.5151,18.6344 53.1818,22.9677 53.5,27.5C 51.602,26.9035 49.9354,26.9035 48.5,27.5C 41.0604,30.5085 35.227,28.5085 31,21.5C 28.5087,6.322 34.6753,0.488671 49.5,4C 51.9725,5.79849 53.6392,8.13183 54.5,11C 53.5,11.1667 52.5,11.3333 51.5,11.5C 48.8233,10.0297 45.9899,8.6964 43,7.5C 38.2662,8.06726 35.7662,10.7339 35.5,15.5C 36.3224,23.4325 40.3224,25.7659 47.5,22.5C 48.4147,21.6721 49.0814,20.6721 49.5,19.5C 46.9135,18.52 44.2469,18.1866 41.5,18.5C 41.5,16.8333 41.5,15.1667 41.5,13.5C 46.0323,13.1818 50.3656,13.5151 54.5,14.5 Z"/></g>
<g><path style="opacity:0.933" fill="#0b4491" d="M 61.5,10.5 C 70.0562,9.3938 74.0562,13.0605 73.5,21.5C 69.4862,21.3345 65.4862,21.5012 61.5,22C 62.3805,23.4705 63.7139,24.3038 65.5,24.5C 68.0115,23.3448 70.6781,22.6781 73.5,22.5C 72.767,26.8931 70.1003,29.2264 65.5,29.5C 56.648,27.1234 54.3146,21.79 58.5,13.5C 59.7701,12.7124 60.7701,11.7124 61.5,10.5 Z M 64.5,14.5 C 66.0898,14.6282 67.4231,15.2949 68.5,16.5C 66.2351,17.6474 63.9018,17.8141 61.5,17C 62.5707,16.1482 63.5707,15.3149 64.5,14.5 Z"/></g>
<g><path style="opacity:0.933" fill="#0b4491" d="M 80.5,10.5 C 89.0057,9.34109 93.0057,13.0078 92.5,21.5C 88.4454,21.1758 84.4454,21.5091 80.5,22.5C 81.3481,23.9911 82.6814,24.6578 84.5,24.5C 87.0672,23.3364 89.7338,22.6697 92.5,22.5C 91.767,26.8931 89.1003,29.2264 84.5,29.5C 75.844,27.1845 73.344,21.8512 77,13.5C 78.1451,12.3636 79.3117,11.3636 80.5,10.5 Z M 82.5,14.5 C 84.6807,14.2837 86.3474,15.117 87.5,17C 85.1667,17.6667 82.8333,17.6667 80.5,17C 81.3805,16.2917 82.0472,15.4584 82.5,14.5 Z"/></g>
<g><path style="opacity:0.906" fill="#0b4591" d="M -0.5,20.5 C -0.5,19.8333 -0.5,19.1667 -0.5,18.5C 0.794229,17.7101 1.9609,16.7101 3,15.5C 6.01549,18.6828 9.18215,21.6828 12.5,24.5C 13.3081,24.1924 13.9747,23.6924 14.5,23C 12.5,21 10.5,19 8.5,17C 9.68529,15.647 11.0186,14.4803 12.5,13.5C 15.9846,16.484 19.318,19.6507 22.5,23C 19.318,26.3493 15.9846,29.516 12.5,32.5C 8.14648,28.4781 3.81314,24.4781 -0.5,20.5 Z"/></g>
<g><path style="opacity:0.435" fill="#0b4292" d="M 54.5,14.5 C 54.5,19.1667 54.5,23.8333 54.5,28.5C 52.3792,28.6747 50.3792,28.3414 48.5,27.5C 49.9354,26.9035 51.602,26.9035 53.5,27.5C 53.1818,22.9677 53.5151,18.6344 54.5,14.5 Z"/></g>
</svg>
