<svg width="332" height="166" viewBox="0 0 332 166" fill="none" xmlns="http://www.w3.org/2000/svg">
<path d="M0 166C1.90577e-06 144.201 4.29372 122.615 12.636 102.475C20.9783 82.3345 33.2058 64.0348 48.6203 48.6203C64.0348 33.2057 82.3345 20.9783 102.475 12.636C122.615 4.29371 144.201 -2.85865e-06 166 0C187.799 2.85865e-06 209.385 4.29372 229.525 12.636C249.666 20.9783 267.965 33.2058 283.38 48.6203C298.794 64.0348 311.022 82.3345 319.364 102.475C327.706 122.615 332 144.201 332 166H298.8C298.8 148.56 295.365 131.292 288.691 115.18C282.017 99.0676 272.235 84.4279 259.904 72.0962C247.572 59.7646 232.932 49.9826 216.82 43.3088C200.708 36.635 183.44 33.2 166 33.2C148.56 33.2 131.292 36.635 115.18 43.3088C99.0676 49.9826 84.4278 59.7646 72.0962 72.0962C59.7646 84.4278 49.9826 99.0676 43.3088 115.18C36.635 131.292 33.2 148.56 33.2 166H0Z" fill="#BED7FA"/>
</svg>
